<svg xmlns="http://www.w3.org/2000/svg" viewBox="0 0 183.4 288.05"><g data-name="Capa 2"><g data-name="Capa 5" style="isolation:isolate"><path d="M117 126v72a9 9 0 0 1-9 9 8.84 8.84 0 0 1-3.91-.9A9 9 0 0 1 99 198v-73l-.06-1.28v-.81c0-.44-.09-.89-.14-1.32s-.08-.59-.12-.87-.09-.58-.14-.87-.09-.49-.14-.73-.09-.49-.15-.73-.1-.49-.16-.73-.11-.48-.18-.72-.13-.51-.21-.76-.16-.57-.25-.85-.24-.76-.37-1.13a1 1 0 0 0 0-.16v-.13c-.13-.36-.27-.73-.41-1.08s-.21-.54-.33-.81c-.23-.54-.47-1.08-.73-1.61l-.38-.77c0-.11-.11-.21-.17-.32s-.25-.47-.38-.71l-.28-.5c-.14-.25-.29-.5-.44-.74s-.38-.62-.58-.93-.49-.73-.74-1.09-.46-.65-.7-1-.62-.8-1-1.2l-.09-.11c-.35-.42-.71-.83-1.08-1.24l-.59-.64-.6-.61-.62-.6c-.39-.38-.79-.75-1.2-1.1s-1-.87-1.57-1.29c-.34-.27-.7-.54-1-.79-1-.72-2-1.38-3.1-2l-.76-.42-.77-.41c-.42-.22-.85-.42-1.28-.62L77 92.83l-.81-.33-.82-.31-.57-.19a5.52 5.52 0 0 0-.53-.18c-.59-.2-1.18-.37-1.78-.53l-.7-.19c-.56-.14-1.12-.27-1.69-.38l-.86-.16-.86-.14c-.65-.1-1.3-.18-2-.24h-.15c-.23 0-.47 0-.7-.06h-5.12c-.23 0-.47 0-.7.06h-.11c-.66.06-1.31.14-2 .24l-.86.14-.86.16c-.57.11-1.13.24-1.69.38l-.7.19c-.6.16-1.19.33-1.78.53a5.52 5.52 0 0 0-.53.18l-.59.21-.82.31-.81.33-1.1.49c-.43.2-.86.4-1.28.62l-.77.41-.76.42c-1.07.62-2.1 1.28-3.1 2a39.902 39.902 0 0 0-2.62 2.08c-.51.44-.81.72-1.2 1.1l-.62.6-.6.61-.59.64c-.37.4-.73.82-1.08 1.24l-.09.11c-.32.39-.64.79-.95 1.2s-.47.64-.7 1-.5.72-.74 1.09-.39.62-.58.93-.3.49-.44.74l-.28.5c-.13.24-.26.47-.38.71s-.12.21-.17.32l-.38.77c-.26.53-.5 1.07-.73 1.61q-.18.41-.33.81c-.14.35-.28.72-.41 1.08v.13a1 1 0 0 0-.05.16c-.13.37-.25.75-.37 1.13s-.17.56-.25.85-.15.51-.21.76-.12.48-.18.72-.11.48-.16.73-.1.48-.15.73-.1.48-.14.73-.1.58-.14.87-.08.57-.12.87-.1.88-.14 1.32v.81L27 125v154a9 9 0 0 1-18 0V123.04c0-.19 0-.64.07-1a2.64 2.64 0 0 1 0-.28.17.17 0 0 1 0-.07v-.22c0-.07 0-.38.05-.57s0-.1 0-.15v-.12c0-.4.08-.8.13-1.19l.06-.49c0-.19 0-.38.08-.57 0-.42.12-.83.19-1.24s.1-.63.16-.94.13-.71.21-1.07.15-.74.24-1.11c.15-.65.31-1.3.48-1.94v-.11c.09-.34.18-.67.28-1 0-.16.09-.32.14-.47l.24-.8c.1-.33.21-.66.32-1s.16-.48.25-.72c.18-.53.38-1 .58-1.57.1-.29.22-.56.33-.84l.33-.78c.14-.33.28-.66.43-1s.25-.56.39-.84.26-.55.4-.82l.35-.71c.2-.38.4-.77.61-1.15.42-.77.85-1.52 1.3-2.26s1-1.53 1.46-2.27.92-1.32 1.4-2l.22-.3.35-.46.16-.2.75-.94c.12-.16.25-.31.38-.46l.39-.46q.18-.23.39-.45l.4-.45c.38-.43.77-.86 1.17-1.27q.92-1 1.86-1.86l.95-.89c.64-.58 1.28-1.15 1.95-1.69.24-.2.48-.4.73-.59l.87-.68c.49-.38 1-.74 1.49-1.1s.94-.66 1.42-1 1.08-.7 1.62-1c.28-.18.57-.35.86-.52l.81-.46.33-.19 1-.52.15-.08h.16c.51-.27 1-.53 1.55-.78l.48-.23.21-.09 1.08-.49.13-.06.53-.22c.34-.15.67-.29 1-.42l.6-.24h.06c.52-.2 1-.39 1.59-.58l.46-.16.46-.15.94-.3q.95-.28 1.89-.54t2.13-.56c.54-.12 1.08-.24 1.62-.34a4 4 0 0 1 .48-.09l.63-.12h.15l1-.16.93-.14.68-.08h.14l.63-.07 1.59-.14h.62c.37 0 .74-.05 1.12-.06h4.82c.38 0 .75 0 1.12.06h.62l1.59.14.63.07h.14l.68.08.93.14 1 .16h.15l.63.12a4 4 0 0 1 .48.09 46.665 46.665 0 0 1 3.54.82c.64.17 1.26.35 1.89.54l.94.3.46.15.46.16c.54.19 1.07.38 1.59.58h.06l.6.24c.35.13.68.27 1 .42l.53.22.13.06c.36.15.72.32 1.08.49l.21.09.48.23c.52.25 1 .51 1.55.78h.16l.15.08 1 .52.33.19.81.46c.29.17.58.34.86.52.54.34 1.08.68 1.62 1l.71.48.71.49c.51.36 1 .72 1.49 1.1l.87.68c.25.19.49.39.73.59.67.54 1.31 1.11 2 1.69l1 .89q.94.9 1.86 1.86c.4.41.79.84 1.17 1.27l.4.45.39.45.39.46c.13.15.26.3.38.46l.75.94.16.2.35.46.22.3c.49.64 1 1.3 1.4 2s1 1.5 1.46 2.27.89 1.5 1.3 2.26c.21.38.41.77.61 1.15l.35.71c.14.27.27.55.4.82s.27.56.39.84.29.65.43 1l.33.78c.11.28.23.55.33.84.2.52.4 1 .58 1.57.09.24.17.48.25.72s.22.65.32 1l.24.8c.05.15.09.31.14.47.1.33.19.66.28 1v.11c.17.64.33 1.29.48 1.94q.14.55.24 1.11c.08.36.14.71.21 1.07s.11.62.16.94.14.82.19 1.24c0 .19 0 .38.08.57l.06.49c0 .39.09.79.13 1.19v.46c0 .12 0 .4.06.6v.07a2.64 2.64 0 0 1 0 .28c0 .32 0 .64.07 1s0 .38 0 .57v1c0 .3.1 1.04.1 1.5z" fill="#e95e0d"/><path d="M117 126.05a54 54 0 0 1-53.54 54h-.92a9 9 0 0 1 .46-18 36 36 0 0 0 36-36 37.48 37.48 0 0 0-.28-4.53A36 36 0 0 0 27 126.05v153a9 9 0 0 1-18 0v-153a54 54 0 0 1 107.28-8.8 53.14 53.14 0 0 1 .72 8.8z" fill="#f39f11" opacity=".7" style="mix-blend-mode:overlay" data-name="Capa 9"/><path d="M144.61 90.05A9 9 0 0 1 127.5 94a80.99 80.99 0 0 0-2.09-3.9A72 72 0 0 0 15.07 72.29 9 9 0 0 1 2.9 59a4.32 4.32 0 0 1 .39-.34Q6.05 56.21 9 54a90 90 0 0 1 132 27q1.46 2.52 2.75 5.15a8.93 8.93 0 0 1 .86 3.9z" fill="#ef860a"/><path d="M183.4 90.05a9 9 0 0 1-17.35 3.52c-.15-.51-.32-1-.49-1.53-.22-.67-.44-1.33-.68-2q-1.63-4.64-3.67-9A108.07 108.07 0 0 0 13.3 30.1 8.9 8.9 0 0 1 9 31.19 9 9 0 0 1 4.65 14.3a4.74 4.74 0 0 1 .5-.26c1.27-.66 2.56-1.3 3.86-1.92A126.13 126.13 0 0 1 180.74 81q1.09 2.88 2.06 5.83c0 .07 0 .15.08.23l.24.74a9 9 0 0 1 .28 2.25z" fill="#f39f11"/></g></g></svg>